<?xml version="1.0" standalone="no"?>
<!DOCTYPE svg PUBLIC "-//W3C//DTD SVG 20010904//EN"
 "http://www.w3.org/TR/2001/REC-SVG-20010904/DTD/svg10.dtd">
<svg version="1.0" xmlns="http://www.w3.org/2000/svg"
 width="1035.000000pt" height="155.000000pt" viewBox="0 0 1035.000000 155.000000"
 preserveAspectRatio="xMidYMid meet">

<g transform="translate(0.000000,155.000000) scale(0.100000,-0.100000)"
fill="#000000" stroke="none">
<path d="M0 775 l0 -775 5175 0 5175 0 0 775 0 775 -5175 0 -5175 0 0 -775z
m1025 611 c21 -21 23 -28 14 -58 -21 -66 -21 -76 -1 -96 11 -11 42 -25 69 -30
79 -17 151 7 190 64 37 54 52 64 94 64 126 0 198 -56 185 -144 -7 -41 -4 -47
100 -197 58 -85 117 -168 130 -186 34 -44 30 -58 -18 -78 -144 -57 -516 -32
-512 35 1 8 34 62 75 120 41 58 99 140 128 183 l54 78 -29 31 c-32 34 -81 58
-118 58 -13 0 -46 -17 -73 -39 -83 -65 -109 -75 -199 -76 l-82 0 4 -30 c2 -16
11 -147 19 -290 8 -143 18 -278 21 -301 l5 -41 67 -12 c125 -23 212 -80 212
-138 0 -115 -362 -186 -601 -118 -231 65 -204 207 49 256 34 6 65 16 68 21 5
8 43 546 44 618 l0 35 -78 1 c-88 0 -123 13 -196 74 -62 51 -96 52 -162 6 -30
-20 -49 -41 -48 -52 0 -11 58 -101 128 -202 142 -205 141 -201 52 -227 -152
-45 -486 -17 -486 41 0 8 57 96 127 196 123 177 127 184 125 230 -4 67 17 101
77 127 76 32 181 25 181 -12 0 -16 56 -70 90 -87 34 -18 117 -16 164 4 38 16
38 17 33 59 -3 23 -9 52 -12 64 -5 16 0 29 19 47 32 32 60 33 91 2z m5048 10
c42 -18 85 -64 96 -104 9 -32 9 -32 -25 -32 -23 0 -34 5 -34 14 0 30 -50 74
-90 81 -89 15 -154 -36 -172 -133 -21 -112 18 -211 92 -233 74 -22 144 13 167
86 8 24 16 31 41 33 38 4 40 -6 13 -63 -22 -47 -64 -89 -104 -104 -45 -17
-124 -13 -167 9 -75 38 -110 110 -110 225 0 113 53 200 138 225 43 13 120 11
155 -4z m3079 4 c105 -30 165 -153 138 -285 -6 -30 -22 -70 -35 -89 l-23 -35
29 -23 c28 -21 29 -25 16 -43 -14 -19 -15 -19 -50 8 -34 26 -37 26 -71 12 -72
-30 -180 -13 -234 38 -109 102 -82 336 47 404 48 25 120 30 183 13z m-6652
-15 c81 -42 79 -186 -2 -231 -14 -8 -60 -13 -115 -14 l-93 0 0 -100 0 -100
-35 0 -35 0 0 230 0 230 125 0 c93 0 134 -4 155 -15z m488 -10 l0 -25 -137 0
-136 0 2 -72 1 -73 123 -5 c117 -5 122 -6 125 -27 4 -23 3 -23 -121 -23 l-125
0 0 -80 0 -80 135 0 135 0 0 -25 0 -25 -170 0 -170 0 0 230 0 230 169 0 169 0
0 -25z m390 5 c65 -40 77 -136 24 -189 -22 -22 -23 -26 -9 -36 25 -18 37 -60
37 -125 0 -32 5 -62 10 -65 22 -13 8 -25 -29 -25 -37 0 -39 2 -45 38 -3 20 -6
55 -6 78 0 69 -14 78 -124 82 l-96 4 0 -101 0 -101 -35 0 -35 0 0 230 0 230
138 0 c120 0 141 -3 170 -20z m291 -172 l64 -193 64 193 65 192 44 0 44 0 0
-230 0 -230 -30 0 -30 0 -1 183 -1 182 -61 -182 -62 -183 -31 0 -32 0 -57 173
c-32 94 -60 175 -64 179 -3 4 -5 -74 -3 -172 l3 -180 -35 0 -35 0 -1 230 -1
230 48 0 48 0 64 -192z m662 -33 c43 -121 79 -223 79 -227 0 -5 -15 -8 -33 -8
-32 0 -34 2 -56 70 l-22 70 -88 0 -89 0 -23 -67 c-22 -64 -26 -68 -56 -71 -18
-2 -33 -2 -33 1 0 3 133 362 159 430 10 25 15 28 47 25 l36 -3 79 -220z m223
210 c3 -8 52 -90 108 -182 l103 -167 3 182 2 182 30 0 30 0 0 -230 0 -230 -33
0 c-20 0 -40 7 -49 18 -8 9 -59 90 -114 179 l-99 162 -3 -180 -2 -179 -30 0
-30 0 0 230 0 230 39 0 c25 0 41 -5 45 -15z m704 -12 c3 -23 3 -23 -135 -23
l-138 0 2 -67 c1 -38 2 -71 3 -75 0 -5 56 -8 124 -8 122 0 123 0 122 -22 -1
-22 -4 -23 -123 -26 l-123 -3 0 -79 0 -80 135 0 135 0 0 -25 0 -25 -170 0
-170 0 0 230 0 230 168 -2 c165 -3 167 -3 170 -25z m267 -158 l110 -180 3 183
2 182 30 0 30 0 0 -230 0 -230 -37 0 -38 0 -110 180 -110 180 -3 -180 -2 -180
-30 0 -30 0 0 231 0 230 38 -3 c37 -3 38 -5 147 -183z m1067 173 c13 -34 -3
-38 -132 -38 l-128 0 -4 -75 -3 -75 125 0 126 0 2 -25 2 -25 -125 0 -125 0 0
-80 0 -80 135 0 135 0 0 -25 0 -25 -170 0 -170 0 0 230 0 230 164 0 c122 0
165 -3 168 -12z m478 -174 c0 -206 -8 -242 -61 -269 -40 -21 -108 -19 -147 5
-36 22 -52 54 -52 106 0 31 2 34 30 34 28 0 30 -3 30 -35 0 -65 61 -96 111
-56 23 19 24 23 27 210 l3 191 30 0 29 0 0 -186z m170 16 c0 -200 7 -222 70
-241 31 -9 49 -9 80 0 64 19 72 45 74 240 l1 166 33 3 34 3 -4 -178 c-3 -198
-10 -222 -70 -265 -28 -19 -45 -23 -108 -23 -63 0 -80 4 -108 23 -60 43 -66
68 -70 265 l-4 177 36 0 36 0 0 -170z m688 150 c66 -40 78 -135 25 -188 -23
-23 -24 -27 -10 -37 25 -18 37 -60 37 -125 0 -32 5 -62 10 -65 22 -13 8 -25
-29 -25 -37 0 -39 2 -45 38 -3 20 -6 55 -6 78 0 69 -14 78 -124 82 l-96 4 0
-101 0 -101 -35 0 -35 0 0 230 0 230 138 0 c120 0 141 -3 170 -20z m617 -14
c69 -53 98 -160 71 -267 -34 -129 -80 -159 -250 -159 l-116 0 0 231 0 231 128
-4 c124 -3 130 -4 167 -32z m905 -136 c0 -200 7 -222 70 -241 31 -9 49 -9 80
0 63 19 70 41 70 241 l0 170 36 0 36 0 -4 -177 c-3 -197 -10 -222 -70 -265
-28 -19 -45 -23 -109 -23 -67 0 -80 3 -112 28 -54 41 -67 96 -67 284 l0 153
35 0 35 0 0 -170z m720 145 l0 -25 -134 0 -134 0 -4 -75 -3 -75 128 0 c70 0
127 -4 127 -9 0 -38 -10 -41 -131 -41 l-119 0 0 -80 0 -80 135 0 135 0 0 -25
0 -25 -170 0 -170 0 0 230 0 230 170 0 170 0 0 -25z m-2011 -197 c-1 -117 -3
-218 -6 -225 -3 -7 -18 -13 -34 -13 l-29 0 0 225 0 225 36 0 35 0 -2 -212z
m631 -13 l-1 -225 -35 0 -34 0 0 225 0 225 35 0 36 0 -1 -225z m-4166 -534
c31 -20 45 -42 61 -98 6 -20 3 -23 -22 -23 -23 0 -31 7 -45 40 -36 85 -178 80
-203 -7 -11 -39 30 -67 135 -93 105 -26 135 -47 145 -104 15 -78 -26 -135
-113 -156 -118 -28 -219 22 -238 118 -6 31 -5 32 25 32 20 0 31 -5 31 -15 0
-59 61 -100 139 -93 65 6 101 37 101 84 0 42 -33 69 -103 83 -89 19 -146 42
-162 64 -32 45 -10 143 37 168 64 34 156 34 212 0z m4761 3 c36 -17 57 -46 69
-96 6 -26 4 -28 -23 -28 -23 0 -30 5 -35 26 -12 47 -53 74 -111 74 -41 0 -56
-5 -72 -22 -50 -57 -32 -99 52 -123 30 -8 80 -22 110 -30 44 -12 60 -23 75
-48 38 -61 15 -148 -47 -181 -44 -22 -117 -29 -171 -16 -53 12 -94 46 -111 93
-18 46 -14 57 19 57 20 0 30 -5 30 -15 0 -31 29 -72 60 -85 45 -19 125 -8 155
20 31 29 33 79 6 104 -11 10 -59 28 -108 40 -134 34 -153 50 -153 122 0 28 31
103 43 104 1 0 20 7 42 15 47 18 119 13 170 -11z m-5645 -214 l0 -230 -25 0
c-18 0 -25 5 -25 20 l0 21 -28 -21 c-65 -48 -148 -28 -189 45 -49 87 -19 228
58 268 43 23 102 17 135 -14 l24 -22 0 81 c0 81 0 82 25 82 l25 0 0 -230z
m1650 0 l0 -230 -25 0 c-18 0 -25 5 -25 20 l0 21 -28 -21 c-65 -48 -148 -28
-189 45 -44 78 -21 219 41 260 45 30 96 30 139 1 l37 -25 0 79 c0 79 0 80 25
80 l25 0 0 -230z m380 206 c0 -18 -6 -25 -22 -28 -18 -2 -24 -11 -26 -35 -3
-30 -1 -33 22 -33 21 0 26 -5 26 -25 0 -20 -5 -25 -25 -25 l-25 0 0 -145 0
-145 -25 0 -25 0 0 145 0 145 -25 0 c-20 0 -25 5 -25 25 0 20 5 25 24 25 23 0
25 5 28 47 2 39 7 50 28 60 42 21 70 17 70 -11z m318 -8 c3 -25 0 -28 -27 -28
-28 0 -31 3 -31 31 0 27 3 30 28 27 21 -2 28 -9 30 -30z m132 -48 l0 -81 22
20 c47 44 140 34 177 -18 43 -60 44 -191 2 -250 -46 -64 -126 -78 -177 -30
l-24 22 0 -21 c0 -17 -6 -22 -24 -22 l-25 0 -3 126 c-2 69 -2 172 0 230 3 103
3 104 27 104 25 0 25 -2 25 -80z m2330 50 c0 -27 -3 -30 -30 -30 -27 0 -30 3
-30 30 0 27 3 30 30 30 27 0 30 -3 30 -30z m1132 -15 c24 -39 25 -45 10 -45
-10 0 -38 20 -62 45 l-44 45 34 0 c31 0 38 -6 62 -45z m478 -185 l0 -230 -30
0 -30 0 0 230 0 230 30 0 30 0 0 -230z m-4180 90 c0 -25 -4 -30 -25 -30 -14 0
-37 -11 -50 -25 -24 -23 -25 -30 -25 -145 l0 -120 -30 0 -30 0 0 170 0 170 29
0 c25 0 28 -3 23 -27 l-5 -28 37 33 c48 42 76 43 76 2z m759 3 c83 -62 82
-253 -3 -308 -39 -26 -115 -29 -156 -7 -89 48 -107 211 -32 296 43 48 138 58
191 19z m651 -3 c0 -25 -4 -30 -25 -30 -14 0 -37 -11 -50 -25 -24 -23 -25 -30
-25 -145 l0 -120 -30 0 -30 0 0 170 0 170 29 0 c24 0 28 -3 24 -20 -7 -26 3
-25 39 5 42 35 68 33 68 -5z m234 5 c35 -24 36 -24 36 -4 0 15 5 20 23 17 22
-3 22 -4 22 -188 0 -199 -7 -231 -58 -264 -61 -41 -181 -23 -206 30 -15 33
-15 34 12 34 13 0 32 -9 42 -20 22 -25 90 -27 122 -5 21 15 43 69 43 107 0 15
-5 14 -37 -8 -30 -20 -46 -25 -77 -21 -86 12 -130 75 -123 179 5 78 31 128 80
152 45 22 79 20 121 -9z m385 -2 c36 -27 61 -80 61 -130 l0 -43 -121 0 -121 0
6 -32 c14 -77 102 -103 158 -48 17 17 40 30 54 30 24 0 24 -1 9 -29 -64 -124
-238 -98 -276 42 -13 51 1 135 30 176 44 61 140 77 200 34z m352 -4 c43 -31
59 -69 59 -144 0 -74 -24 -134 -64 -160 -38 -25 -115 -29 -156 -8 -89 46 -107
212 -32 297 44 49 135 57 193 15z m443 17 c34 -14 66 -50 66 -73 0 -22 -41
-14 -62 12 -40 52 -157 19 -128 -35 11 -20 24 -26 100 -46 71 -19 100 -46 100
-94 0 -45 -23 -78 -66 -96 -75 -32 -165 -8 -189 50 -19 46 -19 46 10 46 14 0
25 -4 25 -10 0 -6 9 -19 20 -30 39 -39 150 -18 150 29 0 27 -28 46 -94 64
-106 29 -134 66 -102 134 27 56 101 78 170 49z m915 8 c17 -4 42 -17 56 -30
24 -22 25 -27 25 -149 0 -118 1 -125 20 -125 24 0 28 -38 5 -46 -24 -10 -63 4
-70 25 -5 17 -8 17 -52 -5 -54 -28 -83 -30 -123 -9 -37 19 -50 43 -50 93 0 50
39 87 102 97 107 16 108 16 115 43 8 34 -26 62 -78 62 -31 0 -43 -6 -61 -30
-26 -36 -58 -40 -58 -7 0 62 77 99 169 81z m331 -24 c0 -25 -4 -30 -25 -30
-14 0 -37 -11 -50 -25 -24 -23 -25 -30 -25 -145 l0 -120 -30 0 -30 0 0 170 0
170 29 0 c24 0 28 -3 24 -20 -7 -26 3 -25 39 5 42 35 68 33 68 -5z m-6178
-116 c3 -120 5 -137 22 -150 32 -23 79 -17 107 12 22 24 24 34 27 150 4 124 4
124 28 124 l24 0 0 -170 0 -170 -25 0 c-19 0 -25 5 -25 22 l0 21 -23 -21 c-30
-29 -77 -37 -122 -22 -54 18 -65 52 -65 210 l0 130 24 0 c24 0 24 0 28 -136z
m950 0 c3 -120 5 -137 22 -150 32 -23 79 -17 107 12 22 24 24 34 27 150 4 124
4 124 28 124 l24 0 0 -170 0 -170 -25 0 c-19 0 -25 5 -25 22 l0 21 -23 -21
c-30 -29 -77 -37 -122 -22 -54 18 -65 52 -65 210 l0 130 24 0 c24 0 24 0 28
-136z m1268 -34 l0 -170 -30 0 -30 0 0 170 0 170 30 0 30 0 0 -170z m840 56
c0 -112 9 -163 33 -178 26 -17 74 -8 98 18 22 24 24 34 27 150 4 124 4 124 28
124 l24 0 0 -170 0 -170 -25 0 c-19 0 -25 5 -25 22 l0 21 -23 -21 c-30 -29
-77 -37 -122 -22 -54 18 -65 52 -65 210 l0 130 25 0 25 0 0 -114z m1620 -56
l0 -170 -30 0 -30 0 0 170 0 170 30 0 30 0 0 -170z"/>
<path d="M290 969 c-61 -88 -110 -162 -108 -165 3 -2 19 1 37 6 87 25 336 21
408 -7 8 -3 -12 34 -47 83 -34 49 -85 124 -113 166 -29 43 -55 78 -59 78 -3 0
-56 -72 -118 -161z"/>
<path d="M1513 1078 c-114 -155 -196 -281 -178 -274 68 26 305 30 408 6 l38
-8 -17 26 c-26 41 -196 286 -204 295 -4 5 -26 -15 -47 -45z"/>
<path d="M803 356 c1 -6 21 -20 43 -31 59 -30 202 -28 267 3 26 13 47 27 47
32 0 4 -19 -2 -42 -14 -62 -30 -214 -30 -276 0 -24 12 -41 17 -39 10z"/>
<path d="M620 326 c0 -84 257 -154 459 -126 123 17 230 59 245 97 3 6 -11 1
-31 -13 -88 -59 -288 -89 -440 -65 -92 15 -186 54 -214 89 -10 14 -19 22 -19
18z"/>
<path d="M9010 1345 c-52 -23 -81 -72 -87 -147 -7 -85 9 -139 52 -176 36 -32
105 -50 145 -37 l22 7 -23 24 c-21 22 -22 26 -7 41 15 14 19 14 44 -6 27 -21
29 -21 41 -4 39 52 43 192 7 240 -49 65 -125 88 -194 58z"/>
<path d="M2290 1270 l0 -82 86 3 c76 4 88 7 105 28 10 13 19 36 19 51 0 15 -9
38 -19 51 -17 21 -29 24 -105 28 l-86 3 0 -82z"/>
<path d="M3140 1269 l0 -81 96 4 c86 3 98 5 115 27 26 32 24 77 -6 106 -22 23
-32 25 -115 25 l-90 0 0 -81z"/>
<path d="M4202 1300 c-5 -14 -21 -58 -36 -97 l-26 -73 70 0 69 0 -28 83 c-15
45 -30 89 -33 97 -4 11 -8 8 -16 -10z"/>
<path d="M7690 1269 l0 -81 96 4 c86 3 98 5 115 27 26 32 24 77 -6 106 -22 23
-32 25 -115 25 l-90 0 0 -81z"/>
<path d="M8310 1169 l0 -181 84 3 c77 4 87 7 114 32 38 37 56 101 49 177 -10
115 -53 150 -184 150 l-63 0 0 -181z"/>
<path d="M3538 460 c-29 -29 -30 -33 -26 -105 3 -61 7 -78 27 -99 54 -57 133
-19 147 70 20 132 -69 213 -148 134z"/>
<path d="M5193 466 c-26 -23 -28 -29 -28 -104 0 -71 3 -83 24 -106 54 -57 133
-19 147 70 19 127 -64 208 -143 140z"/>
<path d="M6250 461 c-28 -27 -30 -35 -30 -99 0 -61 3 -75 26 -101 28 -33 67
-41 106 -20 50 27 65 151 25 210 -18 27 -30 35 -60 37 -30 3 -43 -2 -67 -27z"/>
<path d="M6591 462 c-50 -49 -49 -155 1 -209 28 -30 89 -32 117 -4 38 38 51
127 27 186 -26 62 -97 75 -145 27z"/>
<path d="M7511 471 c-45 -45 -50 -155 -9 -206 22 -28 80 -34 110 -11 23 17 48
78 48 116 0 42 -24 96 -48 109 -32 17 -80 13 -101 -8z"/>
<path d="M7877 479 c-16 -9 -47 -65 -47 -84 0 -3 43 -5 95 -5 52 0 95 2 95 5
0 20 -32 75 -48 84 -26 14 -71 14 -95 0z"/>
<path d="M8212 468 c-49 -54 -49 -172 0 -218 23 -21 77 -27 107 -10 24 12 51
80 51 126 0 45 -23 100 -48 113 -35 19 -86 13 -110 -11z"/>
<path d="M9666 346 c-82 -18 -110 -61 -66 -101 15 -13 30 -16 61 -12 53 7 79
33 86 86 6 47 9 46 -81 27z"/>
</g>
</svg>
